<?xml version="1.0" encoding="UTF-8"?>
<svg id="Layer_2" data-name="Layer 2" xmlns="http://www.w3.org/2000/svg" viewBox="0 0 67.85 22.06">
  <g id="Layer_1-2" data-name="Layer 1">
    <g>
      <rect width="3.05" height="17.72"/>
      <g>
        <path d="M13.48,13.1c0,1.43-1.14,2.86-3.22,2.86-1.17,0-2.19-.41-2.19-1.76s1.07-1.79,2.93-2.14c.93-.19,1.88-.45,2.48-.83v1.88ZM16.32,15.72v-6.69c0-1.69-.62-2.91-1.81-3.62-.83-.52-1.95-.74-3.41-.74-3.62,0-5.33,1.98-5.43,4.15h2.86c.07-1.26.9-2.05,2.6-2.05,1.52,0,2.29.74,2.29,1.83s-1.05,1.48-3.14,1.74c-3.02.36-5.22,1.05-5.22,3.93,0,2.48,1.86,3.76,4.33,3.76,2.03,0,3.17-.83,4-1.95h.05c.05.86.21,1.36.43,1.64h2.93v-.21c-.28-.19-.48-.74-.48-1.79"/>
        <path d="M24.91,10.91c-.52,1.55-1.1,3.95-1.1,3.95h-.05s-.52-2.38-1.07-3.95l-2.1-5.91h-3.22l4.38,11.05c.26.69.14,1.88.14,2.12-.26,1.02-.83,1.41-1.86,1.41-.31,0-1.14-.05-1.26-.12h-.17v2.45c.21.07,1.83.14,2.22.14,2.07,0,3.17-.81,4.22-3.62l4.93-13.43h-3.05l-2.02,5.91Z"/>
        <path d="M33.32,10.22c.26-2,1.29-3.36,3.26-3.36,1.83,0,2.95,1.26,3.07,3.36h-6.34ZM36.58,4.67c-3.76,0-6.31,2.93-6.31,6.72s2.43,6.72,6.48,6.72c3.12,0,5.17-1.69,5.79-3.98h-2.95c-.41,1.05-1.36,1.67-2.81,1.67-2.12,0-3.29-1.48-3.5-3.67h9.5c.02-2.36-.57-4.36-1.81-5.67-1.07-1.14-2.53-1.79-4.38-1.79"/>
        <path d="M47.68,7.29h-.07v-2.29h-2.93v12.72h3.03v-6.38c0-2.45,1.5-3.81,3.5-3.79.31,0,.55.02.83.1h.1v-2.71c-.21-.1-.45-.12-.81-.12-1.62,0-2.83.83-3.64,2.48"/>
        <path d="M59.64,9.93c-1.93-.36-3.24-.57-3.24-1.69,0-.88.74-1.52,2.14-1.52,1.5,0,2.31.59,2.52,1.69h2.88c-.31-2.22-2-3.74-5.38-3.74-2.98,0-5.02,1.38-5.02,3.79,0,2.88,2.26,3.43,4.64,3.91,2,.38,3.29.62,3.29,1.88,0,1.02-.79,1.74-2.45,1.74s-2.79-.64-3.02-2.17h-2.91c.19,2.57,2.29,4.31,5.91,4.31,3.14,0,5.43-1.4,5.43-4.07,0-3.1-2.38-3.67-4.79-4.12"/>
      </g>
      <polygon points="64.83 4.77 66.1 4.77 66.1 5.02 65.61 5.02 65.61 6.33 65.32 6.33 65.32 5.02 64.83 5.02 64.83 4.77"/>
      <path d="M66.29,4.77h.38l.26.74c.06.18.14.53.14.53h0s.07-.34.14-.53l.25-.74h.39v1.56h-.27v-.81c0-.17.02-.49.02-.49h0s-.06.29-.11.44l-.3.86h-.24l-.3-.86c-.05-.16-.11-.44-.11-.44h0s.02.32.02.49v.81h-.26v-1.56Z"/>
    </g>
  </g>
</svg>